<svg xmlns="http://www.w3.org/2000/svg" xmlns:xlink="http://www.w3.org/1999/xlink" width="1600" zoomAndPan="magnify" viewBox="0 0 1200 149.999998" height="200" preserveAspectRatio="xMidYMid meet" version="1.0"><defs><clipPath id="id1"><path d="M 582.710938 58.027344 L 616.460938 58.027344 L 616.460938 91.777344 L 582.710938 91.777344 Z M 582.710938 58.027344 " clip-rule="nonzero"/></clipPath><clipPath id="id2"><path d="M 599.585938 58.027344 C 590.265625 58.027344 582.710938 65.582031 582.710938 74.902344 C 582.710938 84.222656 590.265625 91.777344 599.585938 91.777344 C 608.90625 91.777344 616.460938 84.222656 616.460938 74.902344 C 616.460938 65.582031 608.90625 58.027344 599.585938 58.027344 " clip-rule="nonzero"/></clipPath><clipPath id="id3"><path d="M 457 30.367188 L 563 30.367188 L 563 71 L 457 71 Z M 457 30.367188 " clip-rule="nonzero"/></clipPath><clipPath id="id4"><path d="M 636 30.367188 L 742 30.367188 L 742 71 L 636 71 Z M 636 30.367188 " clip-rule="nonzero"/></clipPath><clipPath id="id5"><path d="M 636 79 L 742 79 L 742 119.628906 L 636 119.628906 Z M 636 79 " clip-rule="nonzero"/></clipPath><clipPath id="id6"><path d="M 457 79 L 563 79 L 563 119.628906 L 457 119.628906 Z M 457 79 " clip-rule="nonzero"/></clipPath><clipPath id="id7"><path d="M 246.128906 60.515625 L 275.378906 60.515625 L 275.378906 89.765625 L 246.128906 89.765625 Z M 246.128906 60.515625 " clip-rule="nonzero"/></clipPath><clipPath id="id8"><path d="M 260.753906 60.515625 L 275.378906 75.140625 L 260.753906 89.765625 L 246.128906 75.140625 L 260.753906 60.515625 " clip-rule="nonzero"/></clipPath><clipPath id="id9"><path d="M 924.902344 60.515625 L 954.152344 60.515625 L 954.152344 89.765625 L 924.902344 89.765625 Z M 924.902344 60.515625 " clip-rule="nonzero"/></clipPath><clipPath id="id10"><path d="M 939.527344 60.515625 L 954.152344 75.140625 L 939.527344 89.765625 L 924.902344 75.140625 L 939.527344 60.515625 " clip-rule="nonzero"/></clipPath></defs><g clip-path="url(#id1)"><g clip-path="url(#id2)"><path stroke-linecap="butt" transform="matrix(0.745856, 0, 0, 0.745856, 582.711432, 58.027883)" fill="none" stroke-linejoin="miter" d="M 22.624338 -0.000722478 C 10.128215 -0.000722478 -0.000663008 10.128155 -0.000663008 22.624278 C -0.000663008 35.120401 10.128215 45.249279 22.624338 45.249279 C 35.120461 45.249279 45.249338 35.120401 45.249338 22.624278 C 45.249338 10.128155 35.120461 -0.000722478 22.624338 -0.000722478 " stroke="#008037" stroke-width="8" stroke-opacity="1" stroke-miterlimit="4"/></g></g><g clip-path="url(#id3)"><path fill="#008037" d="M 557.878906 36.875 C 555.710938 34.601562 553.078125 32.730469 550.132812 31.644531 C 546.804688 30.410156 543.207031 30.367188 539.773438 31.027344 C 532.511719 32.429688 525.730469 36.449219 519.6875 40.617188 C 513.5 44.871094 508.171875 49.996094 503.035156 55.4375 C 497.792969 61.007812 491.308594 65.027344 483.730469 66.324219 C 476.992188 67.472656 469.476562 66.304688 464.632812 61.070312 C 460.488281 56.628906 459.222656 49.441406 463.078125 44.359375 C 465.246094 41.46875 468.699219 40.148438 472.277344 40.363281 C 475.601562 40.554688 479.394531 41.488281 481.8125 43.976562 C 482.910156 45.125 483.519531 46.59375 483.394531 48.1875 C 483.371094 48.398438 483.707031 48.441406 483.75 48.230469 C 485.035156 42.042969 476.339844 39.511719 471.835938 39.234375 C 468.59375 39.042969 465.539062 39.851562 462.992188 41.957031 C 460.738281 43.847656 459.011719 46.441406 458.191406 49.292969 C 456.320312 55.777344 459.6875 62.433594 464.738281 66.386719 C 470.699219 71.023438 478.78125 71.617188 485.835938 69.554688 C 489.332031 68.535156 492.65625 66.917969 495.644531 64.835938 C 498.761719 62.667969 501.265625 59.964844 503.710938 57.074219 C 506.195312 54.140625 508.59375 51.140625 511.332031 48.464844 C 514.089844 45.785156 517.058594 43.359375 520.214844 41.191406 C 523.308594 39.066406 526.53125 37.214844 529.941406 35.664062 C 533.605469 33.984375 537.519531 32.644531 541.5625 32.472656 C 545.078125 32.324219 548.59375 33.070312 551.585938 34.984375 C 554.28125 36.703125 556.132812 39.148438 557.351562 42.085938 C 559.648438 47.65625 558.238281 54.480469 554.175781 58.859375 C 550.320312 63.007812 542.300781 66.304688 537.921875 61.03125 C 536.699219 59.5625 535.941406 57.839844 536.488281 55.949219 C 536.59375 55.609375 536.070312 55.457031 535.964844 55.800781 C 533.859375 62.476562 540.742188 67.21875 546.617188 67.300781 C 553.941406 67.410156 559.648438 62.070312 561.964844 55.308594 C 564.175781 48.910156 562.492188 41.679688 557.878906 36.875 Z M 557.878906 36.875 " fill-opacity="1" fill-rule="nonzero"/></g><g clip-path="url(#id4)"><path fill="#008037" d="M 641.480469 36.875 C 643.648438 34.601562 646.277344 32.730469 649.226562 31.644531 C 652.554688 30.410156 656.152344 30.367188 659.585938 31.027344 C 666.847656 32.429688 673.628906 36.449219 679.667969 40.617188 C 685.859375 44.871094 691.1875 49.996094 696.324219 55.4375 C 701.566406 61.007812 708.050781 65.027344 715.628906 66.324219 C 722.367188 67.472656 729.882812 66.304688 734.722656 61.070312 C 738.871094 56.628906 740.132812 49.441406 736.28125 44.359375 C 734.113281 41.46875 730.660156 40.148438 727.082031 40.363281 C 723.753906 40.554688 719.964844 41.488281 717.542969 43.976562 C 716.449219 45.125 715.839844 46.59375 715.964844 48.1875 C 715.988281 48.398438 715.648438 48.441406 715.605469 48.230469 C 714.324219 42.042969 723.019531 39.511719 727.523438 39.234375 C 730.765625 39.042969 733.820312 39.851562 736.367188 41.957031 C 738.617188 43.847656 740.34375 46.441406 741.167969 49.292969 C 743.039062 55.777344 739.671875 62.433594 734.617188 66.386719 C 728.660156 71.023438 720.574219 71.617188 713.523438 69.554688 C 710.027344 68.535156 706.703125 66.917969 703.710938 64.835938 C 700.597656 62.667969 698.089844 59.964844 695.648438 57.074219 C 693.164062 54.140625 690.765625 51.140625 688.027344 48.464844 C 685.269531 45.785156 682.300781 43.359375 679.144531 41.191406 C 676.046875 39.066406 672.828125 37.214844 669.417969 35.664062 C 665.753906 33.984375 661.835938 32.644531 657.796875 32.472656 C 654.277344 32.324219 650.761719 33.070312 647.773438 34.984375 C 645.078125 36.703125 643.226562 39.148438 642.003906 42.085938 C 639.710938 47.65625 641.121094 54.480469 645.183594 58.859375 C 649.035156 63.007812 657.058594 66.304688 661.4375 61.03125 C 662.660156 59.5625 663.417969 57.839844 662.867188 55.949219 C 662.761719 55.609375 663.289062 55.457031 663.394531 55.800781 C 665.5 62.476562 658.617188 67.21875 652.742188 67.300781 C 645.414062 67.410156 639.710938 62.070312 637.394531 55.308594 C 635.183594 48.910156 636.867188 41.679688 641.480469 36.875 Z M 641.480469 36.875 " fill-opacity="1" fill-rule="nonzero"/></g><path stroke-linecap="butt" transform="matrix(2.250459, -0.000000000000000149, 0.000000000000000168, 2.537445, 619.006846, 74.933208)" fill="none" stroke-linejoin="miter" d="M 3.249767 0.000152012 L 124.393469 0.000152012 " stroke="#008037" stroke-width="1" stroke-opacity="1" stroke-miterlimit="4"/><path stroke-linecap="butt" transform="matrix(2.250459, -0.000000000000000149, 0.000000000000000168, 2.537445, 619.006846, 74.933208)" fill="none" stroke-linejoin="round" d="M 0.500328 0.000152012 L 2.000022 -1.499265 L 3.499716 0.000152012 L 2.000022 1.499569 Z M 0.500328 0.000152012 " stroke="#008037" stroke-width="1" stroke-opacity="1" stroke-miterlimit="4"/><path stroke-linecap="butt" transform="matrix(2.250459, -0.000000000000000149, 0.000000000000000168, 2.537445, 906.264149, 74.933208)" fill="none" stroke-linejoin="round" d="M -0.499242 0.000152012 L -2.000672 -1.499265 L -3.500366 0.000152012 L -2.000672 1.499569 Z M -0.499242 0.000152012 " stroke="#008037" stroke-width="1" stroke-opacity="1" stroke-miterlimit="4"/><g clip-path="url(#id5)"><path fill="#008037" d="M 641.480469 113.121094 C 643.648438 115.398438 646.277344 117.269531 649.226562 118.351562 C 652.554688 119.585938 656.152344 119.628906 659.585938 118.96875 C 666.847656 117.566406 673.628906 113.546875 679.667969 109.378906 C 685.859375 105.125 691.1875 100.003906 696.324219 94.558594 C 701.566406 88.988281 708.050781 84.96875 715.628906 83.671875 C 722.367188 82.523438 729.882812 83.695312 734.722656 88.925781 C 738.871094 93.367188 740.132812 100.554688 736.28125 105.636719 C 734.113281 108.527344 730.660156 109.847656 727.082031 109.632812 C 723.753906 109.441406 719.964844 108.507812 717.542969 106.019531 C 716.449219 104.871094 715.839844 103.40625 715.964844 101.808594 C 715.988281 101.597656 715.648438 101.554688 715.605469 101.765625 C 714.324219 107.953125 723.019531 110.484375 727.523438 110.761719 C 730.765625 110.953125 733.820312 110.144531 736.367188 108.039062 C 738.617188 106.148438 740.34375 103.554688 741.167969 100.703125 C 743.039062 94.21875 739.671875 87.5625 734.617188 83.609375 C 728.660156 78.972656 720.574219 78.378906 713.523438 80.441406 C 710.027344 81.460938 706.703125 83.078125 703.710938 85.160156 C 700.597656 87.328125 698.089844 90.03125 695.648438 92.921875 C 693.164062 95.855469 690.765625 98.855469 688.027344 101.535156 C 685.269531 104.210938 682.300781 106.636719 679.144531 108.804688 C 676.046875 110.929688 672.828125 112.78125 669.417969 114.332031 C 665.753906 116.011719 661.835938 117.351562 657.796875 117.523438 C 654.277344 117.671875 650.761719 116.925781 647.773438 115.015625 C 645.078125 113.292969 643.226562 110.847656 642.003906 107.914062 C 639.710938 102.339844 641.121094 95.515625 645.183594 91.136719 C 649.035156 86.988281 657.058594 83.695312 661.4375 88.96875 C 662.660156 90.433594 663.417969 92.15625 662.867188 94.046875 C 662.761719 94.390625 663.289062 94.539062 663.394531 94.199219 C 665.5 87.519531 658.617188 82.78125 652.742188 82.695312 C 645.414062 82.589844 639.710938 87.925781 637.394531 94.6875 C 635.183594 101.085938 636.867188 108.316406 641.480469 113.121094 Z M 641.480469 113.121094 " fill-opacity="1" fill-rule="nonzero"/></g><g clip-path="url(#id6)"><path fill="#008037" d="M 557.878906 113.121094 C 555.710938 115.398438 553.078125 117.269531 550.132812 118.351562 C 546.804688 119.585938 543.207031 119.628906 539.773438 118.96875 C 532.511719 117.566406 525.730469 113.546875 519.6875 109.378906 C 513.5 105.125 508.171875 100.003906 503.035156 94.558594 C 497.792969 88.988281 491.308594 84.96875 483.730469 83.671875 C 476.992188 82.523438 469.476562 83.695312 464.632812 88.925781 C 460.488281 93.367188 459.222656 100.554688 463.078125 105.636719 C 465.246094 108.527344 468.699219 109.847656 472.277344 109.632812 C 475.601562 109.441406 479.394531 108.507812 481.8125 106.019531 C 482.910156 104.871094 483.519531 103.40625 483.394531 101.808594 C 483.371094 101.597656 483.707031 101.554688 483.75 101.765625 C 485.035156 107.953125 476.339844 110.484375 471.835938 110.761719 C 468.59375 110.953125 465.539062 110.144531 462.992188 108.039062 C 460.738281 106.148438 459.011719 103.554688 458.191406 100.703125 C 456.320312 94.21875 459.6875 87.5625 464.738281 83.609375 C 470.699219 78.972656 478.78125 78.378906 485.835938 80.441406 C 489.332031 81.460938 492.65625 83.078125 495.644531 85.160156 C 498.761719 87.328125 501.265625 90.03125 503.710938 92.921875 C 506.195312 95.855469 508.59375 98.855469 511.332031 101.535156 C 514.089844 104.210938 517.058594 106.636719 520.214844 108.804688 C 523.308594 110.929688 526.53125 112.78125 529.941406 114.332031 C 533.605469 116.011719 537.519531 117.351562 541.5625 117.523438 C 545.078125 117.671875 548.59375 116.925781 551.585938 115.015625 C 554.28125 113.292969 556.132812 110.847656 557.351562 107.914062 C 559.648438 102.339844 558.238281 95.515625 554.175781 91.136719 C 550.320312 86.988281 542.300781 83.695312 537.921875 88.96875 C 536.699219 90.433594 535.941406 92.15625 536.488281 94.046875 C 536.59375 94.390625 536.070312 94.539062 535.964844 94.199219 C 533.859375 87.519531 540.742188 82.78125 546.617188 82.695312 C 553.941406 82.589844 559.648438 87.925781 561.964844 94.6875 C 564.175781 101.085938 562.492188 108.316406 557.878906 113.121094 Z M 557.878906 113.121094 " fill-opacity="1" fill-rule="nonzero"/></g><path stroke-linecap="butt" transform="matrix(-2.24954, -0.000000000000000275, 0.000000000000000311, -2.537445, 580.352856, 75.055925)" fill="none" stroke-linejoin="miter" d="M 3.249503 0.000487625 L 124.112765 0.000487625 " stroke="#008037" stroke-width="1" stroke-opacity="1" stroke-miterlimit="4"/><path stroke-linecap="butt" transform="matrix(-2.24954, -0.000000000000000275, 0.000000000000000311, -2.537445, 580.352856, 75.055925)" fill="none" stroke-linejoin="round" d="M 0.500677 0.000487625 L 1.999248 -1.500469 L 3.499555 0.000487625 L 1.999248 1.499905 Z M 0.500677 0.000487625 " stroke="#008037" stroke-width="1" stroke-opacity="1" stroke-miterlimit="4"/><path stroke-linecap="butt" transform="matrix(-2.24954, -0.000000000000000275, 0.000000000000000311, -2.537445, 293.845598, 75.055925)" fill="none" stroke-linejoin="round" d="M -0.499281 0.000487625 L -1.999587 -1.500469 L -3.499894 0.000487625 L -1.999587 1.499905 Z M -0.499281 0.000487625 " stroke="#008037" stroke-width="1" stroke-opacity="1" stroke-miterlimit="4"/><g clip-path="url(#id7)"><g clip-path="url(#id8)"><path stroke-linecap="butt" transform="matrix(0.757588, 0, 0, 0.757588, 246.129723, 60.516286)" fill="none" stroke-linejoin="miter" d="M 19.303608 -0.000873126 L 38.608294 19.303813 L 19.303608 38.608499 L -0.00107788 19.303813 L 19.303608 -0.000873126 " stroke="#008037" stroke-width="6" stroke-opacity="1" stroke-miterlimit="4"/></g></g><g clip-path="url(#id9)"><g clip-path="url(#id10)"><path stroke-linecap="butt" transform="matrix(0.757588, 0, 0, 0.757588, 924.902764, 60.516286)" fill="none" stroke-linejoin="miter" d="M 19.304131 -0.000873126 L 38.608817 19.303813 L 19.304131 38.608499 L -0.000554783 19.303813 L 19.304131 -0.000873126 " stroke="#008037" stroke-width="6" stroke-opacity="1" stroke-miterlimit="4"/></g></g></svg>